<svg width="30" height="30" viewBox="0 0 30 30" fill="none" xmlns="http://www.w3.org/2000/svg">
<path d="M26.75 15C26.75 21.4893 21.4893 26.75 15 26.75C8.51065 26.75 3.25 21.4893 3.25 15C3.25 8.51065 8.51065 3.25 15 3.25C21.4893 3.25 26.75 8.51065 26.75 15Z" stroke="white" stroke-width="2"/>
<path d="M13.3688 11.1712V12.8925H12.1088V14.9962H13.3688V21.25H15.9588V14.9962H17.6963C17.6963 14.9962 17.86 13.9875 17.9388 12.8837H15.9688V11.4462C15.9688 11.23 16.2513 10.9412 16.5313 10.9412H17.9413V8.75H16.0225C13.305 8.75 13.3688 10.8562 13.3688 11.1712Z" fill="white"/>
</svg>
