<svg width="30" height="30" viewBox="0 0 30 30" fill="none" xmlns="http://www.w3.org/2000/svg">
<circle cx="15" cy="15" r="11.75" stroke="white" stroke-width="2"/>
<path d="M19.6875 14.375V12.8125H18.9063V14.375H17.3438V15.1563H18.9063V16.7188H19.6875V15.1563H21.25V14.375H19.6875ZM12.6563 14.375V15.9375H14.8663C14.7041 16.3941 14.4046 16.7894 14.009 17.0691C13.6133 17.3488 13.1408 17.4993 12.6563 17.5C12.0349 17.4993 11.4391 17.2522 10.9997 16.8128C10.5603 16.3734 10.3132 15.7777 10.3125 15.1563C10.3125 13.8638 11.3638 12.8125 12.6563 12.8125C13.2163 12.8125 13.7563 13.0125 14.1738 13.3788L15.2013 12.2C14.4955 11.5863 13.5915 11.2489 12.6563 11.25C11.6207 11.2513 10.6279 11.6633 9.89561 12.3956C9.16333 13.1279 8.75135 14.1207 8.75003 15.1563C8.75135 16.1918 9.16333 17.1846 9.89561 17.9169C10.6279 18.6492 11.6207 19.0612 12.6563 19.0625C13.6919 19.0612 14.6847 18.6492 15.417 17.9169C16.1492 17.1846 16.5612 16.1918 16.5625 15.1563V14.375H12.6563Z" fill="white"/>
</svg>
