<svg width="30" height="30" viewBox="0 0 30 30" fill="none" xmlns="http://www.w3.org/2000/svg">
<g clip-path="url(#clip0_2302_230)">
<path fill-rule="evenodd" clip-rule="evenodd" d="M15 2.5C17.9837 2.5 20.8452 3.68526 22.955 5.79505C25.0647 7.90483 26.25 10.7663 26.25 13.75C26.25 17.5925 24.155 20.7375 21.9475 22.9938C20.8444 24.1086 19.641 25.1196 18.3525 26.0138L17.82 26.3762L17.57 26.5425L17.0988 26.8425L16.6788 27.0988L16.1588 27.4012C15.8056 27.6022 15.4063 27.7079 15 27.7079C14.5937 27.7079 14.1944 27.6022 13.8412 27.4012L13.3212 27.0988L12.6713 26.6987L12.4312 26.5425L11.9187 26.2013C10.5287 25.2604 9.23383 24.1861 8.0525 22.9938C5.845 20.7362 3.75 17.5925 3.75 13.75C3.75 10.7663 4.93526 7.90483 7.04505 5.79505C9.15483 3.68526 12.0163 2.5 15 2.5ZM15 5C12.6794 5 10.4538 5.92187 8.81282 7.56282C7.17187 9.20376 6.25 11.4294 6.25 13.75C6.25 16.6525 7.84 19.2 9.83875 21.245C10.6983 22.1149 11.6272 22.9133 12.6163 23.6325L13.1887 24.04C13.3737 24.1688 13.5512 24.2887 13.7225 24.4L14.21 24.7125L14.6388 24.9738L15 25.185L15.5688 24.8487L16.0275 24.5613C16.2712 24.4062 16.5338 24.2325 16.8113 24.04L17.3837 23.6325C18.3728 22.9133 19.3017 22.1149 20.1612 21.245C22.16 19.2013 23.75 16.6525 23.75 13.75C23.75 11.4294 22.8281 9.20376 21.1872 7.56282C19.5462 5.92187 17.3206 5 15 5ZM15 8.75C16.3261 8.75 17.5979 9.27678 18.5355 10.2145C19.4732 11.1521 20 12.4239 20 13.75C20 15.0761 19.4732 16.3479 18.5355 17.2855C17.5979 18.2232 16.3261 18.75 15 18.75C13.6739 18.75 12.4021 18.2232 11.4645 17.2855C10.5268 16.3479 10 15.0761 10 13.75C10 12.4239 10.5268 11.1521 11.4645 10.2145C12.4021 9.27678 13.6739 8.75 15 8.75ZM15 11.25C14.337 11.25 13.7011 11.5134 13.2322 11.9822C12.7634 12.4511 12.5 13.087 12.5 13.75C12.5 14.413 12.7634 15.0489 13.2322 15.5178C13.7011 15.9866 14.337 16.25 15 16.25C15.663 16.25 16.2989 15.9866 16.7678 15.5178C17.2366 15.0489 17.5 14.413 17.5 13.75C17.5 13.087 17.2366 12.4511 16.7678 11.9822C16.2989 11.5134 15.663 11.25 15 11.25Z" fill="white"/>
</g>
<defs>
<clipPath id="clip0_2302_230">
<rect width="30" height="30" fill="white"/>
</clipPath>
</defs>
</svg>
