<svg width="105" height="105" viewBox="0 0 105 105" fill="none" xmlns="http://www.w3.org/2000/svg">
<circle cx="52.5" cy="52.5" r="52.5" fill="#38342E"/>
<path d="M70.99 42.8C70.9568 42.4639 70.8388 42.1417 70.6471 41.8637C70.4554 41.5856 70.1963 41.3607 69.894 41.21L53.894 33.21C53.6161 33.071 53.3097 32.9986 52.999 32.9986C52.6883 32.9986 52.3819 33.071 52.104 33.21L36.104 41.21C35.8026 41.3615 35.5442 41.5867 35.353 41.8647C35.1617 42.1426 35.0438 42.4643 35.01 42.8C34.988 43.014 33.088 64.334 52.188 72.828C52.4432 72.9432 52.72 73.0028 53 73.0028C53.28 73.0028 53.5568 72.9432 53.812 72.828C72.912 64.334 71.012 43.016 70.99 42.8ZM53 68.794C39.462 62.25 38.822 48.284 38.932 44.27L53 37.236L67.058 44.266C67.132 48.244 66.402 62.302 53 68.794Z" fill="white"/>
<path d="M51 54.172L46.414 49.586L43.586 52.414L51 59.828L62.414 48.414L59.586 45.586L51 54.172Z" fill="white"/>
</svg>
