<svg width="105" height="105" viewBox="0 0 105 105" fill="none" xmlns="http://www.w3.org/2000/svg">
<circle cx="52.5" cy="52.5" r="52.5" fill="#38342E"/>
<path d="M42 51H46V55H42V51ZM42 59H46V63H42V59ZM50 51H54V55H50V51ZM50 59H54V63H50V59ZM58 51H62V55H58V51ZM58 59H62V63H58V59Z" fill="white"/>
<path d="M38 73H66C68.206 73 70 71.206 70 69V41C70 38.794 68.206 37 66 37H62V33H58V37H46V33H42V37H38C35.794 37 34 38.794 34 41V69C34 71.206 35.794 73 38 73ZM66 45L66.002 69H38V45H66Z" fill="white"/>
</svg>
