<svg width="145" height="32" viewBox="0 0 145 32" fill="none" xmlns="http://www.w3.org/2000/svg">
<path fill-rule="evenodd" clip-rule="evenodd" d="M24.9213 15.8084H27.3298V11.221L22.2165 7.02219L17.6624 3.28255L13.6649 0L9.66747 3.28255L0 11.221V11.2227V17.7861V18.7168V23.7636H5.11331H22.2165V26.838H0V31.8848H22.2165H27.3298V26.838V23.7636V18.7168H22.2165H5.11331V13.5873L13.6649 6.56511L22.2165 13.5873V15.8084H24.9213Z" fill="#CBA061"/>
<path fill-rule="evenodd" clip-rule="evenodd" d="M39.9622 18.5719C39.1178 18.3148 38.45 17.974 37.9581 17.5489L38.713 15.8551C39.1934 16.2353 39.7831 16.5456 40.482 16.7858C41.1805 17.0265 41.8824 17.1464 42.5866 17.1464C43.4587 17.1464 44.1097 17.0068 44.5403 16.7272C44.9706 16.4478 45.1861 16.0789 45.1861 15.6204C45.1861 15.285 45.0656 15.0083 44.8254 14.7902C44.5849 14.5722 44.2804 14.402 43.9115 14.2788C43.5425 14.1559 43.0394 14.0162 42.4023 13.8596C41.5078 13.6473 40.7839 13.4348 40.2306 13.2222C39.6771 13.01 39.2019 12.6773 38.805 12.2244C38.4081 11.7717 38.2096 11.1595 38.2096 10.3881C38.2096 9.73992 38.3857 9.1501 38.7379 8.61893C39.0901 8.08803 39.6209 7.6659 40.3311 7.35281C41.0408 7.03988 41.9101 6.88324 42.9388 6.88324C43.654 6.88324 44.3584 6.97274 45.0519 7.15152C45.7449 7.33051 46.3431 7.58755 46.8462 7.92294L46.1585 9.61668C45.6441 9.31483 45.1078 9.08586 44.5485 8.92918C43.9895 8.77265 43.4475 8.69435 42.9221 8.69435C42.0611 8.69435 41.421 8.83974 41.0019 9.1304C40.5826 9.42124 40.373 9.8069 40.373 10.2876C40.373 10.6229 40.493 10.897 40.7335 11.1093C40.9739 11.3218 41.2786 11.4894 41.6475 11.6124C42.0164 11.7355 42.5195 11.8752 43.1569 12.0316C44.0287 12.2327 44.7441 12.4424 45.3034 12.6604C45.8621 12.8785 46.3401 13.2112 46.7372 13.6582C47.1338 14.1055 47.3324 14.7093 47.3324 15.4695C47.3324 16.1179 47.1563 16.7049 46.8043 17.2303C46.4521 17.7559 45.918 18.1751 45.2026 18.4881C44.4872 18.8008 43.6151 18.9577 42.5866 18.9577C41.6809 18.9577 40.8061 18.8289 39.9622 18.5719Z" fill="#F7F2F2"/>
<path fill-rule="evenodd" clip-rule="evenodd" d="M51.7097 8.89547H47.8188V7.05069H57.7803V8.89547H53.8896V18.7897H51.7097V8.89547Z" fill="#F7F2F2"/>
<path fill-rule="evenodd" clip-rule="evenodd" d="M67.1042 18.7897L64.7062 15.3518C64.6057 15.3631 64.4545 15.3686 64.2535 15.3686H61.6038V18.7897H59.4236V7.05069H64.2535C65.2707 7.05069 66.1568 7.21838 66.9116 7.55376C67.6659 7.88915 68.2447 8.37001 68.6473 8.99595C69.0496 9.6222 69.2509 10.3657 69.2509 11.2265C69.2509 12.1097 69.0354 12.8699 68.6053 13.5071C68.1748 14.1445 67.5572 14.6198 66.7519 14.9326L69.452 18.7897H67.1042ZM66.3162 9.49911C65.8241 9.0966 65.1029 8.89547 64.1527 8.89547H61.6038V13.5743H64.1527C65.1029 13.5743 65.8241 13.3704 66.3162 12.9621C66.8078 12.5541 67.054 11.9757 67.054 11.2265C67.054 10.4776 66.8078 9.90163 66.3162 9.49911Z" fill="#F7F2F2"/>
<path fill-rule="evenodd" clip-rule="evenodd" d="M73.9295 18.1776C72.9677 17.6578 72.2132 16.9367 71.6656 16.0143C71.1178 15.092 70.8439 14.0606 70.8439 12.9203C70.8439 11.7799 71.1178 10.7486 71.6656 9.82624C72.2132 8.90387 72.9677 8.18277 73.9295 7.66289C74.891 7.143 75.9696 6.88312 77.1659 6.88312C78.3623 6.88312 79.4409 7.143 80.4028 7.66289C81.3641 8.18277 82.1188 8.90126 82.6667 9.81786C83.2143 10.7347 83.4885 11.7689 83.4885 12.9203C83.4885 14.072 83.2143 15.1062 82.6667 16.0227C82.1188 16.9397 81.3641 17.6578 80.4028 18.1776C79.4409 18.6975 78.3623 18.9575 77.1659 18.9575C75.9696 18.9575 74.891 18.6975 73.9295 18.1776ZM79.2793 16.5175C79.9051 16.1653 80.3968 15.6734 80.755 15.0417C81.1127 14.4102 81.2916 13.703 81.2916 12.9203C81.2916 12.1378 81.1127 11.4306 80.755 10.7988C80.3968 10.1674 79.9051 9.67528 79.2793 9.32309C78.6529 8.97097 77.9484 8.7949 77.1659 8.7949C76.3834 8.7949 75.6792 8.97097 75.0531 9.32309C74.427 9.67528 73.9351 10.1674 73.5773 10.7988C73.2194 11.4306 73.0405 12.1378 73.0405 12.9203C73.0405 13.703 73.2194 14.4102 73.5773 15.0417C73.9351 15.6734 74.427 16.1653 75.0531 16.5175C75.6792 16.8696 76.3834 17.0457 77.1659 17.0457C77.9484 17.0457 78.6529 16.8696 79.2793 16.5175Z" fill="#F7F2F2"/>
<path fill-rule="evenodd" clip-rule="evenodd" d="M85.8023 7.05069H87.9825V18.7897H85.8023V7.05069Z" fill="#F7F2F2"/>
<path fill-rule="evenodd" clip-rule="evenodd" d="M101.013 13.7503C101.393 14.2479 101.583 14.8655 101.583 15.6034C101.583 16.6208 101.191 17.4062 100.409 17.9596C99.6263 18.513 98.4858 18.7897 96.9879 18.7897H91.152V7.05069H96.6523C98.0386 7.05069 99.1064 7.32191 99.8555 7.86409C100.604 8.40643 100.979 9.15271 100.979 10.1028C100.979 10.6843 100.845 11.1986 100.577 11.6456C100.308 12.093 99.9393 12.4396 99.4696 12.6855C100.118 12.898 100.633 13.253 101.013 13.7503ZM93.3319 8.76121V11.9979H96.4176C97.1777 11.9979 97.7619 11.861 98.17 11.587C98.5781 11.3131 98.7821 10.9136 98.7821 10.3879C98.7821 9.8513 98.5781 9.44626 98.17 9.17205C97.7619 8.89828 97.1777 8.76121 96.4176 8.76121H93.3319ZM99.3858 15.3854C99.3858 14.2563 98.5417 13.6916 96.8536 13.6916H93.3319V17.0791H96.8536C98.5417 17.0791 99.3858 16.5148 99.3858 15.3854Z" fill="#F7F2F2"/>
<path fill-rule="evenodd" clip-rule="evenodd" d="M106.161 18.1776C105.199 17.6578 104.445 16.9367 103.897 16.0143C103.349 15.092 103.075 14.0606 103.075 12.9203C103.075 11.7799 103.349 10.7486 103.897 9.82624C104.445 8.90387 105.199 8.18277 106.161 7.66289C107.122 7.143 108.201 6.88312 109.397 6.88312C110.594 6.88312 111.672 7.143 112.634 7.66289C113.595 8.18277 114.35 8.90126 114.898 9.81786C115.446 10.7347 115.72 11.7689 115.72 12.9203C115.72 14.072 115.446 15.1062 114.898 16.0227C114.35 16.9397 113.595 17.6578 112.634 18.1776C111.672 18.6975 110.594 18.9575 109.397 18.9575C108.201 18.9575 107.122 18.6975 106.161 18.1776ZM111.511 16.5175C112.137 16.1653 112.628 15.6734 112.986 15.0417C113.344 14.4102 113.523 13.703 113.523 12.9203C113.523 12.1378 113.344 11.4306 112.986 10.7988C112.628 10.1674 112.137 9.67528 111.511 9.32309C110.884 8.97097 110.18 8.7949 109.397 8.7949C108.615 8.7949 107.91 8.97097 107.284 9.32309C106.658 9.67528 106.166 10.1674 105.809 10.7988C105.451 11.4306 105.272 12.1378 105.272 12.9203C105.272 13.703 105.451 14.4102 105.809 15.0417C106.166 15.6734 106.658 16.1653 107.284 16.5175C107.91 16.8696 108.615 17.0457 109.397 17.0457C110.18 17.0457 110.884 16.8696 111.511 16.5175Z" fill="#F7F2F2"/>
<path fill-rule="evenodd" clip-rule="evenodd" d="M120.281 18.1776C119.32 17.6578 118.565 16.9367 118.017 16.0143C117.469 15.092 117.195 14.0606 117.195 12.9203C117.195 11.7799 117.469 10.7486 118.017 9.82624C118.565 8.90387 119.32 8.18277 120.281 7.66289C121.243 7.143 122.321 6.88312 123.518 6.88312C124.714 6.88312 125.793 7.143 126.754 7.66289C127.716 8.18277 128.471 8.90126 129.018 9.81786C129.566 10.7347 129.84 11.7689 129.84 12.9203C129.84 14.072 129.566 15.1062 129.018 16.0227C128.471 16.9397 127.716 17.6578 126.754 18.1776C125.793 18.6975 124.714 18.9575 123.518 18.9575C122.321 18.9575 121.243 18.6975 120.281 18.1776ZM125.631 16.5175C126.257 16.1653 126.749 15.6734 127.107 15.0417C127.464 14.4102 127.643 13.703 127.643 12.9203C127.643 12.1378 127.464 11.4306 127.107 10.7988C126.749 10.1674 126.257 9.67528 125.631 9.32309C125.005 8.97097 124.3 8.7949 123.518 8.7949C122.735 8.7949 122.031 8.97097 121.405 9.32309C120.779 9.67528 120.287 10.1674 119.929 10.7988C119.571 11.4306 119.392 12.1378 119.392 12.9203C119.392 13.703 119.571 14.4102 119.929 15.0417C120.287 15.6734 120.779 16.1653 121.405 16.5175C122.031 16.8696 122.735 17.0457 123.518 17.0457C124.3 17.0457 125.005 16.8696 125.631 16.5175Z" fill="#F7F2F2"/>
<path fill-rule="evenodd" clip-rule="evenodd" d="M142.937 18.7897L142.921 11.0084L139.063 17.448H138.091L134.234 11.1091V18.7897H132.154V7.05069H133.948L138.611 14.832L143.189 7.05069H144.983L145 18.7897H142.937Z" fill="#F7F2F2"/>
<path fill-rule="evenodd" clip-rule="evenodd" d="M39.3515 30.3118C38.9165 30.0724 38.5757 29.7431 38.3288 29.3237C38.0819 28.9043 37.9581 28.432 37.9581 27.9071C37.9581 27.3821 38.0819 26.91 38.3288 26.4904C38.5757 26.0711 38.918 25.7416 39.3556 25.5024C39.7929 25.2631 40.282 25.1434 40.8223 25.1434C41.2441 25.1434 41.63 25.2141 41.9802 25.3557C42.33 25.4973 42.6288 25.7069 42.8758 25.9848L42.3739 26.4711C41.9673 26.044 41.4604 25.8304 40.8532 25.8304C40.4516 25.8304 40.0889 25.9206 39.7646 26.1005C39.4404 26.2808 39.1869 26.5291 39.0043 26.8455C38.8215 27.1621 38.7302 27.5159 38.7302 27.9071C38.7302 28.2982 38.8215 28.6521 39.0043 28.9685C39.1869 29.285 39.4404 29.5333 39.7646 29.7135C40.0889 29.8937 40.4516 29.9837 40.8532 29.9837C41.4554 29.9837 41.9623 29.7674 42.3739 29.3352L42.8758 29.8216C42.6288 30.0995 42.329 30.3105 41.9763 30.4545C41.6238 30.5987 41.2364 30.6707 40.8146 30.6707C40.274 30.6707 39.7866 30.5511 39.3515 30.3118Z" fill="#F7F2F2"/>
<path fill-rule="evenodd" clip-rule="evenodd" d="M47.9012 29.258H45.0295L44.435 30.6089H43.64L46.0871 25.2051H46.8515L49.306 30.6089H48.4958L47.9012 29.258ZM47.631 28.6404L46.4653 25.9926L45.2997 28.6404H47.631Z" fill="#F7F2F2"/>
<path fill-rule="evenodd" clip-rule="evenodd" d="M55.2579 25.2051V30.6089H54.5016V25.8768H52.1084L52.0544 27.4593C52.0285 28.2055 51.9681 28.8103 51.8728 29.2734C51.7775 29.7367 51.6271 30.0854 51.4214 30.3195C51.2153 30.5537 50.9374 30.6707 50.5877 30.6707C50.428 30.6707 50.2659 30.6501 50.1013 30.6089L50.1551 29.9219C50.2375 29.9426 50.3198 29.9528 50.4024 29.9528C50.6236 29.9528 50.8012 29.864 50.9349 29.6865C51.0686 29.5089 51.1689 29.2426 51.236 28.8874C51.3028 28.5323 51.3465 28.0641 51.3672 27.4825L51.4523 25.2051H55.2579Z" fill="#F7F2F2"/>
<path fill-rule="evenodd" clip-rule="evenodd" d="M58.477 30.3118C58.0397 30.0724 57.696 29.7418 57.4466 29.3198C57.1968 28.8979 57.0721 28.4269 57.0721 27.9071C57.0721 27.3873 57.1968 26.9164 57.4466 26.4943C57.696 26.0723 58.0397 25.7416 58.477 25.5024C58.9143 25.2631 59.406 25.1434 59.9515 25.1434C60.4918 25.1434 60.9807 25.2631 61.4182 25.5024C61.8558 25.7416 62.198 26.0711 62.4449 26.4904C62.6919 26.91 62.8157 27.3821 62.8157 27.9071C62.8157 28.432 62.6919 28.9043 62.4449 29.3237C62.198 29.7431 61.8558 30.0724 61.4182 30.3118C60.9807 30.5511 60.4918 30.6707 59.9515 30.6707C59.406 30.6707 58.9143 30.5511 58.477 30.3118ZM61.0206 29.7135C61.3372 29.5333 61.5869 29.285 61.7695 28.9685C61.9521 28.6521 62.0436 28.2982 62.0436 27.9071C62.0436 27.5159 61.9521 27.1621 61.7695 26.8455C61.5869 26.5291 61.3372 26.2808 61.0206 26.1005C60.7044 25.9206 60.3476 25.8304 59.9515 25.8304C59.5551 25.8304 59.1962 25.9206 58.8746 26.1005C58.5531 26.2808 58.3007 26.5291 58.1181 26.8455C57.9355 27.1621 57.8441 27.5159 57.8441 27.9071C57.8441 28.2982 57.9355 28.6521 58.1181 28.9685C58.3007 29.285 58.5531 29.5333 58.8746 29.7135C59.1962 29.8937 59.5551 29.9837 59.9515 29.9837C60.3476 29.9837 60.7044 29.8937 61.0206 29.7135Z" fill="#F7F2F2"/>
<path fill-rule="evenodd" clip-rule="evenodd" d="M69.2923 25.2051V30.6089H68.5205V28.2004H65.4172V30.6089H64.6451V25.2051H65.4172V27.5288H68.5205V25.2051H69.2923Z" fill="#F7F2F2"/>
<path fill-rule="evenodd" clip-rule="evenodd" d="M79.3591 29.9373V31.7901H78.6412V30.6089H74.1945L74.1868 31.7901H73.4689L73.4766 29.9373H73.739C74.0788 29.9169 74.318 29.6478 74.4569 29.1306C74.5958 28.6134 74.6809 27.8838 74.7118 26.9421L74.7658 25.2051H78.5639V29.9373H79.3591ZM75.2098 28.9029C75.1145 29.4021 74.9613 29.747 74.7503 29.9373H77.7995V25.8768H75.4297L75.3908 27.0116C75.3651 27.7733 75.3048 28.4037 75.2098 28.9029Z" fill="#F7F2F2"/>
<path fill-rule="evenodd" clip-rule="evenodd" d="M85.1912 28.2738C85.3788 28.4976 85.4728 28.7847 85.4728 29.1344C85.4728 29.6028 85.3017 29.9657 84.9594 30.2229C84.6172 30.4803 84.1193 30.6089 83.4657 30.6089H80.9954V25.2051H83.3191C83.9107 25.2051 84.3728 25.3248 84.7048 25.5642C85.0365 25.8034 85.2026 26.1469 85.2026 26.5947C85.2026 26.8881 85.1293 27.1378 84.9826 27.3435C84.8359 27.5494 84.6289 27.7038 84.3612 27.8066C84.7267 27.8942 85.0031 28.0499 85.1912 28.2738ZM81.7598 27.5828H83.2649C83.6406 27.5828 83.9275 27.5083 84.1258 27.3589C84.3238 27.2097 84.4229 26.9911 84.4229 26.7027C84.4229 26.4146 84.3226 26.1946 84.122 26.0427C83.9212 25.8911 83.6356 25.815 83.2649 25.815H81.7598V27.5828ZM84.6933 29.0728C84.6933 28.7639 84.589 28.5361 84.3805 28.3895C84.1719 28.2428 83.8621 28.1695 83.4503 28.1695H81.7598V29.9991H83.4503C84.2787 29.9991 84.6933 29.6904 84.6933 29.0728Z" fill="#F7F2F2"/>
<path fill-rule="evenodd" clip-rule="evenodd" d="M91.2628 29.9373V30.6089H87.341V25.2051H91.1545V25.8768H88.113V27.5365H90.8228V28.1927H88.113V29.9373H91.2628Z" fill="#F7F2F2"/>
<path fill-rule="evenodd" clip-rule="evenodd" d="M96.8131 25.7069C97.2147 26.0416 97.4152 26.502 97.4152 27.0887C97.4152 27.6754 97.2147 28.136 96.8131 28.4705C96.4119 28.8052 95.8611 28.9723 95.1612 28.9723H93.8256V30.6089H93.0538V25.2051H95.1612C95.8611 25.2051 96.4119 25.3724 96.8131 25.7069ZM96.2573 27.9882C96.5147 27.7797 96.6434 27.4799 96.6434 27.0887C96.6434 26.6977 96.5147 26.3978 96.2573 26.1894C95.9998 25.981 95.6269 25.8768 95.138 25.8768H93.8256V28.3007H95.138C95.6269 28.3007 95.9998 28.1966 96.2573 27.9882Z" fill="#F7F2F2"/>
<path fill-rule="evenodd" clip-rule="evenodd" d="M102.989 29.9373V30.6089H99.0676V25.2051H102.881V25.8768H99.8394V27.5365H102.549V28.1927H99.8394V29.9373H102.989Z" fill="#F7F2F2"/>
<path fill-rule="evenodd" clip-rule="evenodd" d="M104.78 25.205H105.544V29.3737L108.74 25.205H109.451V30.6088H108.694V26.4479L105.49 30.6088H104.78V25.205ZM106.127 24.5527C105.898 24.37 105.781 24.1088 105.776 23.7691H106.324C106.329 23.9699 106.4 24.1255 106.536 24.2362C106.672 24.3469 106.862 24.4021 107.104 24.4021C107.335 24.4021 107.522 24.3469 107.663 24.2362C107.805 24.1255 107.878 23.9699 107.883 23.7691H108.424C108.418 24.1037 108.301 24.3635 108.073 24.5488C107.843 24.7341 107.52 24.8267 107.104 24.8267C106.682 24.8267 106.356 24.7354 106.127 24.5527Z" fill="#F7F2F2"/>
</svg>
