<svg width="24" height="24" viewBox="0 0 24 24" fill="none" xmlns="http://www.w3.org/2000/svg">
<g clip-path="url(#clip0_2302_228)">
<path d="M11.586 5.26563C13.4182 5.26563 15.1447 6.07788 16.41 7.34763V7.35138C16.41 6.74163 16.8202 6.28038 17.3872 6.28038H17.5312C18.426 6.28038 18.6052 7.12413 18.6052 7.39038L18.609 16.8666C18.5467 17.4876 19.2502 17.8086 19.641 17.4096C21.1597 15.8474 22.98 9.37038 18.6952 5.62038C14.6992 2.12013 9.336 2.69838 6.4845 4.66338C3.45375 6.75738 1.5165 11.3826 3.39825 15.7296C5.45325 20.4689 11.328 21.8826 14.8245 20.4726C16.5945 19.7579 17.4105 22.1474 15.5707 22.9296C12.798 24.1124 5.07075 23.9916 1.46175 17.7419C-0.976503 13.5201 -0.847504 6.09363 5.622 2.24613C10.5667 -0.699117 17.091 0.116883 21.024 4.22313C25.134 8.51988 24.8962 16.5591 20.8837 19.6844C19.0665 21.1056 16.368 19.7234 16.3875 17.6526L16.3672 16.9776C15.102 18.2309 13.4182 18.9659 11.586 18.9659C7.96125 18.9659 4.77 15.7739 4.77 12.1529C4.77 8.49288 7.96125 5.26713 11.586 5.26713V5.26563ZM16.1452 11.8911C16.008 9.23838 14.0392 7.64088 11.6602 7.64088H11.5702C8.82825 7.64088 7.305 9.80088 7.305 12.2496C7.305 14.9954 9.14475 16.7294 11.559 16.7294C14.2537 16.7294 16.023 14.7576 16.152 12.4251L16.1452 11.8911Z" fill="white"/>
</g>
<defs>
<clipPath id="clip0_2302_228">
<rect width="24" height="24" fill="white"/>
</clipPath>
</defs>
</svg>
