<svg width="16" height="16" viewBox="0 0 16 16" fill="none" xmlns="http://www.w3.org/2000/svg">
<path d="M8 0C3.58172 0 0 3.58172 0 8C0 12.4183 3.58172 16 8 16C12.4183 16 16 12.4183 16 8C16 3.58172 12.4183 0 8 0ZM5.125 3.17773C5.28983 3.16801 5.43881 3.26653 5.55176 3.4414L6.64551 5.51561C6.76067 5.7614 6.69523 6.02457 6.52344 6.20019L6.02247 6.70116C5.99155 6.74353 5.9712 6.79125 5.97071 6.84373C6.16283 7.5874 6.7456 8.27337 7.25979 8.74511C7.77395 9.21684 8.32657 9.85552 9.04395 10.0068C9.13261 10.0316 9.24124 10.0404 9.30469 9.98145L9.88672 9.38868C10.0876 9.2364 10.3783 9.1626 10.5928 9.28712H10.6025L12.5761 10.4522C12.8659 10.6337 12.8959 10.9847 12.6885 11.1983L11.3291 12.5469C11.1284 12.7527 10.8617 12.822 10.6026 12.8223C9.45659 12.7879 8.37379 12.2255 7.4844 11.6475C6.02453 10.5854 4.68543 9.26819 3.84473 7.67676C3.52231 7.00943 3.14355 6.15796 3.17969 5.41311C3.18292 5.13289 3.25873 4.85837 3.45607 4.67776L4.81544 3.31839C4.92133 3.22828 5.02609 3.18357 5.125 3.17773Z" fill="white"/>
</svg>
