<svg width="30" height="30" viewBox="0 0 30 30" fill="none" xmlns="http://www.w3.org/2000/svg">
<path d="M15.4652 9.44445C12.0375 9.44445 10.3097 11.9028 10.3097 13.95C10.3097 15.1931 10.7791 16.2945 11.7861 16.7056C11.9514 16.7736 12.1 16.7083 12.1486 16.5264L12.2944 15.9458C12.343 15.7667 12.3236 15.7028 12.1916 15.5445C11.9014 15.2028 11.7139 14.7583 11.7139 14.1292C11.7139 12.307 13.0777 10.675 15.2666 10.675C17.2055 10.675 18.268 11.8597 18.268 13.4389C18.268 15.5195 17.3486 17.275 15.9819 17.275C15.2277 17.275 14.6625 16.6514 14.843 15.8847C15.0597 14.9708 15.4805 13.9847 15.4805 13.325C15.4805 12.7333 15.1625 12.2431 14.5083 12.2431C13.7361 12.2431 13.1166 13.0403 13.1166 14.1097C13.1166 14.7903 13.3472 15.2514 13.3472 15.2514L12.418 19.182C12.143 20.3486 12.3777 21.7792 12.3972 21.9236C12.4083 22.0097 12.518 22.0306 12.568 21.9653C12.6402 21.8722 13.5583 20.7361 13.8708 19.6042C13.9597 19.2847 14.3791 17.6222 14.3791 17.6222C14.6291 18.1 15.3611 18.5195 16.1402 18.5195C18.4597 18.5195 20.0333 16.407 20.0333 13.575C20.0319 11.4389 18.2194 9.44445 15.4652 9.44445Z" fill="white"/>
<circle cx="15" cy="15" r="11.75" stroke="white" stroke-width="2"/>
</svg>
