<svg width="105" height="105" viewBox="0 0 105 105" fill="none" xmlns="http://www.w3.org/2000/svg">
<circle cx="52.5" cy="52.5" r="52.5" fill="#38342E"/>
<path d="M71 62C71 62.76 70.58 63.42 69.94 63.76L54.14 72.64C53.82 72.88 53.42 73 53 73C52.58 73 52.18 72.88 51.86 72.64L36.06 63.76C35.7394 63.5915 35.471 63.3384 35.2842 63.0281C35.0973 62.7178 34.999 62.3622 35 62V44C35 43.24 35.42 42.58 36.06 42.24L51.86 33.36C52.18 33.12 52.58 33 53 33C53.42 33 53.82 33.12 54.14 33.36L69.94 42.24C70.58 42.58 71 43.24 71 44V62ZM39 47V59H41.5V55H43C44.0609 55 45.0783 54.5786 45.8284 53.8284C46.5786 53.0783 47 52.0609 47 51C47 49.9391 46.5786 48.9217 45.8284 48.1716C45.0783 47.4214 44.0609 47 43 47H39ZM41.5 53V49H42.5C43.0304 49 43.5391 49.2107 43.9142 49.5858C44.2893 49.9609 44.5 50.4696 44.5 51C44.5 51.5304 44.2893 52.0391 43.9142 52.4142C43.5391 52.7893 43.0304 53 42.5 53H41.5ZM48.5 47V59H51V55H52.5L53.82 59H56.46L54.88 54.22C55.86 53.5 56.5 52.32 56.5 51C56.5 49.9391 56.0786 48.9217 55.3284 48.1716C54.5783 47.4214 53.5609 47 52.5 47H48.5ZM51 53V49H52C52.5304 49 53.0391 49.2107 53.4142 49.5858C53.7893 49.9609 54 50.4696 54 51C54 51.5304 53.7893 52.0391 53.4142 52.4142C53.0391 52.7893 52.5304 53 52 53H51ZM63 47C60.24 47 58 49.68 58 53C58 56.32 60.24 59 63 59C65.76 59 68 56.32 68 53C68 49.68 65.76 47 63 47ZM63 49.5C64.52 49.5 65.76 51.06 65.76 53C65.76 54.94 64.52 56.5 63 56.5C61.48 56.5 60.26 54.94 60.26 53C60.26 51.06 61.48 49.5 63 49.5Z" fill="white"/>
</svg>
