<svg width="40" height="40" viewBox="0 0 40 40" fill="none" xmlns="http://www.w3.org/2000/svg">
<path d="M20 36.6666C29.2048 36.6666 36.6667 29.2047 36.6667 19.9999C36.6667 10.7952 29.2048 3.33325 20 3.33325C10.7953 3.33325 3.33334 10.7952 3.33334 19.9999C3.33334 29.2047 10.7953 36.6666 20 36.6666Z" stroke="#CBA061" stroke-width="2" stroke-linecap="round" stroke-linejoin="round"/>
<path d="M15.1501 15C15.5419 13.8861 16.3153 12.9468 17.3333 12.3485C18.3513 11.7502 19.5482 11.5315 20.712 11.7312C21.8758 11.9308 22.9314 12.5358 23.6919 13.4392C24.4523 14.3425 24.8685 15.4858 24.8667 16.6666C24.8667 20 19.8667 21.6666 19.8667 21.6666" stroke="#CBA061" stroke-width="2" stroke-linecap="round" stroke-linejoin="round"/>
<path d="M20 28.3333H20.0167" stroke="#CBA061" stroke-width="2" stroke-linecap="round" stroke-linejoin="round"/>
</svg>
