<svg width="28" height="28" viewBox="0 0 28 28" fill="none" xmlns="http://www.w3.org/2000/svg">
<g clip-path="url(#clip0_2302_234)">
<path d="M14 2.33325C20.4435 2.33325 25.6667 7.55642 25.6667 13.9999C25.6667 20.4434 20.4435 25.6666 14 25.6666C7.5565 25.6666 2.33333 20.4434 2.33333 13.9999C2.33333 7.55642 7.5565 2.33325 14 2.33325ZM14 4.66659C11.5246 4.66659 9.15067 5.64992 7.40033 7.40026C5.64999 9.1506 4.66666 11.5246 4.66666 13.9999C4.66666 16.4753 5.64999 18.8492 7.40033 20.5996C9.15067 22.3499 11.5246 23.3333 14 23.3333C16.4753 23.3333 18.8493 22.3499 20.5997 20.5996C22.35 18.8492 23.3333 16.4753 23.3333 13.9999C23.3333 11.5246 22.35 9.1506 20.5997 7.40026C18.8493 5.64992 16.4753 4.66659 14 4.66659ZM14 6.99992C14.2858 6.99996 14.5616 7.10487 14.7751 7.29475C14.9886 7.48464 15.1251 7.74629 15.1585 8.03009L15.1667 8.16659V13.5169L18.3248 16.6751C18.5341 16.885 18.6555 17.1668 18.6646 17.463C18.6736 17.7593 18.5696 18.0479 18.3735 18.2702C18.1775 18.4926 17.9042 18.6319 17.6091 18.6601C17.314 18.6882 17.0193 18.6029 16.7848 18.4216L16.6752 18.3248L13.1752 14.8248C12.9938 14.6433 12.8774 14.4071 12.8438 14.1528L12.8333 13.9999V8.16659C12.8333 7.85717 12.9562 7.56042 13.175 7.34163C13.3938 7.12284 13.6906 6.99992 14 6.99992Z" fill="white"/>
</g>
<defs>
<clipPath id="clip0_2302_234">
<rect width="28" height="28" fill="white"/>
</clipPath>
</defs>
</svg>
