<svg width="105" height="105" viewBox="0 0 105 105" fill="none" xmlns="http://www.w3.org/2000/svg">
<circle cx="52.5" cy="52.5" r="52.5" fill="#38342E"/>
<path d="M55.34 50.074C55.1816 50.0729 55.0291 50.1346 54.916 50.2455C54.8028 50.3564 54.7381 50.5076 54.736 50.666V55.09C54.7381 55.2488 54.8031 55.4003 54.9167 55.5112C55.0303 55.6222 55.1832 55.6836 55.342 55.682H68.668C68.8268 55.6836 68.9797 55.6222 69.0933 55.5112C69.2069 55.4003 69.2719 55.2488 69.274 55.09V50.666C69.2719 50.5072 69.2069 50.3557 69.0933 50.2448C68.9797 50.1338 68.8268 50.0724 68.668 50.074H55.342H55.34ZM63.512 36.002C65.356 36.09 66.682 36.454 67.522 37.226C68.352 37.99 68.778 39.096 68.862 40.56V44.754C68.8578 45.1112 68.712 45.4521 68.4566 45.7018C68.2012 45.9516 67.8572 46.0897 67.5 46.086C67.323 46.0881 67.1473 46.0553 66.9829 45.9895C66.8186 45.9237 66.6688 45.8262 66.5421 45.7025C66.4154 45.5788 66.3144 45.4314 66.2447 45.2687C66.175 45.1059 66.1381 44.931 66.136 44.754L66.138 40.636C66.094 39.876 65.912 39.404 65.652 39.164C65.4 38.932 64.632 38.724 63.446 38.664H37.294C36.22 38.704 35.522 38.908 35.184 39.198C34.924 39.42 34.728 40.032 34.726 41.09L34.72 64.63C34.82 65.658 35.046 66.344 35.336 66.686C35.556 66.946 36.238 67.206 37.242 67.334H63.474C64.702 67.358 65.426 67.174 65.67 66.928C65.94 66.654 66.136 65.934 66.136 64.756V60.666C66.136 59.932 66.746 59.334 67.5 59.334C68.252 59.334 68.862 59.932 68.862 60.666V64.756C68.862 66.556 68.494 67.902 67.632 68.776C66.744 69.676 65.332 70.036 63.446 69.996L37.08 69.99C35.286 69.782 34 69.29 33.234 68.384C32.54 67.564 32.154 66.394 32 64.758V41.088C32.004 39.336 32.424 38.018 33.388 37.194C34.272 36.434 35.548 36.064 37.242 36H63.512V36.002ZM68.668 47.41C70.508 47.41 72 48.868 72 50.666V55.09C72 56.888 70.508 58.346 68.668 58.346H55.342C53.502 58.346 52.01 56.886 52.01 55.09V50.666C52.01 48.868 53.502 47.41 55.342 47.41H68.668V47.41ZM58.674 51.29C57.754 51.29 57.008 52.01 57.008 52.896C57.008 53.784 57.754 54.502 58.674 54.502C59.594 54.502 60.34 53.782 60.34 52.896C60.34 52.008 59.594 51.288 58.674 51.288V51.29Z" fill="white"/>
</svg>
